<mxfile host="app.diagrams.net" agent="Mozilla/5.0 (Windows NT 10.0; Win64; x64) AppleWebKit/537.36 (KHTML, like Gecko) Chrome/138.0.0.0 YaBrowser/25.8.0.0 Safari/537.36" version="28.2.7">
  <diagram id="COHPANtNdlDn_vuqjENO" name="Страница — 2">
    <mxGraphModel dx="1778" dy="1763" grid="1" gridSize="10" guides="1" tooltips="1" connect="1" arrows="1" fold="1" page="1" pageScale="1" pageWidth="827" pageHeight="1169" math="0" shadow="0">
      <root>
        <mxCell id="0" />
        <mxCell id="1" parent="0" />
        <mxCell id="9CV6OLS0KIFlwvHERPuS-5" value="MinesweeperGame" style="swimlane;fontStyle=1;align=center;verticalAlign=top;childLayout=stackLayout;horizontal=1;startSize=26;horizontalStack=0;resizeParent=1;resizeParentMax=0;resizeLast=0;collapsible=1;marginBottom=0;whiteSpace=wrap;html=1;" parent="1" vertex="1">
          <mxGeometry x="333" y="445" width="230" height="330" as="geometry" />
        </mxCell>
        <mxCell id="9CV6OLS0KIFlwvHERPuS-6" value="&lt;div&gt;board: Board&lt;/div&gt;&lt;div&gt;gameState: GameState&lt;/div&gt;&lt;div&gt;difficulty: Difficulty&lt;/div&gt;&lt;div&gt;timer: Timer&lt;/div&gt;&lt;div&gt;scoreManager: ScoreManager&lt;/div&gt;&lt;div&gt;&lt;span style=&quot;background-color: transparent; color: light-dark(rgb(0, 0, 0), rgb(255, 255, 255));&quot;&gt;inputHandler: InputHandler&lt;/span&gt;&lt;/div&gt;&lt;div&gt;renderer: GameRenderer&lt;/div&gt;&lt;div&gt;mineGenerator: MineGenerator&lt;/div&gt;&lt;div&gt;saveLoadManager: SaveLoadManager&lt;/div&gt;&lt;div&gt;soundManager: SoundManager&lt;br&gt;&lt;/div&gt;" style="text;strokeColor=none;fillColor=none;align=left;verticalAlign=top;spacingLeft=4;spacingRight=4;overflow=hidden;rotatable=0;points=[[0,0.5],[1,0.5]];portConstraint=eastwest;whiteSpace=wrap;html=1;" parent="9CV6OLS0KIFlwvHERPuS-5" vertex="1">
          <mxGeometry y="26" width="230" height="174" as="geometry" />
        </mxCell>
        <mxCell id="9CV6OLS0KIFlwvHERPuS-7" value="" style="line;strokeWidth=1;fillColor=none;align=left;verticalAlign=middle;spacingTop=-1;spacingLeft=3;spacingRight=3;rotatable=0;labelPosition=right;points=[];portConstraint=eastwest;strokeColor=inherit;" parent="9CV6OLS0KIFlwvHERPuS-5" vertex="1">
          <mxGeometry y="200" width="230" height="8" as="geometry" />
        </mxCell>
        <mxCell id="9CV6OLS0KIFlwvHERPuS-8" value="&lt;div&gt;startNewGame(): void&lt;/div&gt;&lt;div&gt;pauseGame(): void&lt;/div&gt;&lt;div&gt;resumeGame(): void&lt;/div&gt;&lt;div&gt;gameOver(): void&lt;/div&gt;&lt;div&gt;winGame(): void&lt;/div&gt;&lt;div&gt;handleInput(ClickType click, Coordinate coord): void&lt;/div&gt;" style="text;strokeColor=none;fillColor=none;align=left;verticalAlign=top;spacingLeft=4;spacingRight=4;overflow=hidden;rotatable=0;points=[[0,0.5],[1,0.5]];portConstraint=eastwest;whiteSpace=wrap;html=1;" parent="9CV6OLS0KIFlwvHERPuS-5" vertex="1">
          <mxGeometry y="208" width="230" height="122" as="geometry" />
        </mxCell>
        <mxCell id="9CV6OLS0KIFlwvHERPuS-13" value="Board" style="swimlane;fontStyle=1;align=center;verticalAlign=top;childLayout=stackLayout;horizontal=1;startSize=26;horizontalStack=0;resizeParent=1;resizeParentMax=0;resizeLast=0;collapsible=1;marginBottom=0;whiteSpace=wrap;html=1;" parent="1" vertex="1">
          <mxGeometry x="320" y="20" width="267" height="230" as="geometry" />
        </mxCell>
        <mxCell id="9CV6OLS0KIFlwvHERPuS-14" value="&lt;div&gt;&lt;div&gt;cells: Cell[][]&lt;/div&gt;&lt;div&gt;width: int&lt;/div&gt;&lt;div&gt;height: int&lt;/div&gt;&lt;div&gt;totalMines: int&lt;/div&gt;&lt;div&gt;revealedCellsCount: int&lt;/div&gt;&lt;/div&gt;" style="text;strokeColor=none;fillColor=none;align=left;verticalAlign=top;spacingLeft=4;spacingRight=4;overflow=hidden;rotatable=0;points=[[0,0.5],[1,0.5]];portConstraint=eastwest;whiteSpace=wrap;html=1;" parent="9CV6OLS0KIFlwvHERPuS-13" vertex="1">
          <mxGeometry y="26" width="267" height="94" as="geometry" />
        </mxCell>
        <mxCell id="9CV6OLS0KIFlwvHERPuS-15" value="" style="line;strokeWidth=1;fillColor=none;align=left;verticalAlign=middle;spacingTop=-1;spacingLeft=3;spacingRight=3;rotatable=0;labelPosition=right;points=[];portConstraint=eastwest;strokeColor=inherit;" parent="9CV6OLS0KIFlwvHERPuS-13" vertex="1">
          <mxGeometry y="120" width="267" height="8" as="geometry" />
        </mxCell>
        <mxCell id="9CV6OLS0KIFlwvHERPuS-16" value="&lt;div&gt;initialize(Difficulty difficulty): void&lt;/div&gt;&lt;div&gt;revealCell(Coordinate coord): void&lt;/div&gt;&lt;div&gt;toggleFlag(Coordinate coord): void&lt;/div&gt;&lt;div&gt;isGameWon(): boolean&lt;/div&gt;&lt;div&gt;getCell(Coordinate coord): Cell&lt;/div&gt;&lt;div&gt;revealAllMines(): void&lt;/div&gt;" style="text;strokeColor=none;fillColor=none;align=left;verticalAlign=top;spacingLeft=4;spacingRight=4;overflow=hidden;rotatable=0;points=[[0,0.5],[1,0.5]];portConstraint=eastwest;whiteSpace=wrap;html=1;" parent="9CV6OLS0KIFlwvHERPuS-13" vertex="1">
          <mxGeometry y="128" width="267" height="102" as="geometry" />
        </mxCell>
        <mxCell id="GqcTUa_5dcUlX0jAunxQ-15" style="edgeStyle=orthogonalEdgeStyle;rounded=0;orthogonalLoop=1;jettySize=auto;html=1;entryX=0.5;entryY=0;entryDx=0;entryDy=0;" edge="1" parent="1" source="9CV6OLS0KIFlwvHERPuS-17" target="9CV6OLS0KIFlwvHERPuS-53">
          <mxGeometry relative="1" as="geometry" />
        </mxCell>
        <mxCell id="9CV6OLS0KIFlwvHERPuS-17" value="Cell" style="swimlane;fontStyle=1;align=center;verticalAlign=top;childLayout=stackLayout;horizontal=1;startSize=26;horizontalStack=0;resizeParent=1;resizeParentMax=0;resizeLast=0;collapsible=1;marginBottom=0;whiteSpace=wrap;html=1;" parent="1" vertex="1">
          <mxGeometry x="-320" y="30" width="267" height="240" as="geometry" />
        </mxCell>
        <mxCell id="9CV6OLS0KIFlwvHERPuS-18" value="&lt;div&gt;position: Coordinate&lt;/div&gt;&lt;div&gt;hasMine: boolean&lt;/div&gt;&lt;div&gt;isRevealed: boolean&lt;/div&gt;&lt;div&gt;isFlagged: boolean&lt;/div&gt;&lt;div&gt;adjacentMines: int&lt;/div&gt;" style="text;strokeColor=none;fillColor=none;align=left;verticalAlign=top;spacingLeft=4;spacingRight=4;overflow=hidden;rotatable=0;points=[[0,0.5],[1,0.5]];portConstraint=eastwest;whiteSpace=wrap;html=1;" parent="9CV6OLS0KIFlwvHERPuS-17" vertex="1">
          <mxGeometry y="26" width="267" height="94" as="geometry" />
        </mxCell>
        <mxCell id="9CV6OLS0KIFlwvHERPuS-19" value="" style="line;strokeWidth=1;fillColor=none;align=left;verticalAlign=middle;spacingTop=-1;spacingLeft=3;spacingRight=3;rotatable=0;labelPosition=right;points=[];portConstraint=eastwest;strokeColor=inherit;" parent="9CV6OLS0KIFlwvHERPuS-17" vertex="1">
          <mxGeometry y="120" width="267" height="8" as="geometry" />
        </mxCell>
        <mxCell id="9CV6OLS0KIFlwvHERPuS-20" value="&lt;div&gt;reveal(): void&lt;/div&gt;&lt;div&gt;toggleFlag(): void&lt;/div&gt;&lt;div&gt;calculateAdjacentMines(): void&lt;/div&gt;&lt;div&gt;render(): void&lt;/div&gt;&lt;div&gt;updateState(): void&lt;/div&gt;&lt;div&gt;getState(): Object&lt;/div&gt;" style="text;strokeColor=none;fillColor=none;align=left;verticalAlign=top;spacingLeft=4;spacingRight=4;overflow=hidden;rotatable=0;points=[[0,0.5],[1,0.5]];portConstraint=eastwest;whiteSpace=wrap;html=1;" parent="9CV6OLS0KIFlwvHERPuS-17" vertex="1">
          <mxGeometry y="128" width="267" height="112" as="geometry" />
        </mxCell>
        <mxCell id="9CV6OLS0KIFlwvHERPuS-21" value="Coordinate" style="swimlane;fontStyle=1;align=center;verticalAlign=top;childLayout=stackLayout;horizontal=1;startSize=26;horizontalStack=0;resizeParent=1;resizeParentMax=0;resizeLast=0;collapsible=1;marginBottom=0;whiteSpace=wrap;html=1;" parent="1" vertex="1">
          <mxGeometry x="50" y="330" width="210" height="180" as="geometry" />
        </mxCell>
        <mxCell id="9CV6OLS0KIFlwvHERPuS-22" value="&lt;div&gt;x: int&lt;/div&gt;&lt;div&gt;y: int&lt;/div&gt;" style="text;strokeColor=none;fillColor=none;align=left;verticalAlign=top;spacingLeft=4;spacingRight=4;overflow=hidden;rotatable=0;points=[[0,0.5],[1,0.5]];portConstraint=eastwest;whiteSpace=wrap;html=1;" parent="9CV6OLS0KIFlwvHERPuS-21" vertex="1">
          <mxGeometry y="26" width="210" height="54" as="geometry" />
        </mxCell>
        <mxCell id="9CV6OLS0KIFlwvHERPuS-23" value="" style="line;strokeWidth=1;fillColor=none;align=left;verticalAlign=middle;spacingTop=-1;spacingLeft=3;spacingRight=3;rotatable=0;labelPosition=right;points=[];portConstraint=eastwest;strokeColor=inherit;" parent="9CV6OLS0KIFlwvHERPuS-21" vertex="1">
          <mxGeometry y="80" width="210" height="8" as="geometry" />
        </mxCell>
        <mxCell id="9CV6OLS0KIFlwvHERPuS-24" value="&lt;div&gt;isValid(int maxX, int maxY): boolean&lt;/div&gt;&lt;div&gt;getNeighbors(): List&amp;lt;Coordinate&amp;gt;&lt;/div&gt;" style="text;strokeColor=none;fillColor=none;align=left;verticalAlign=top;spacingLeft=4;spacingRight=4;overflow=hidden;rotatable=0;points=[[0,0.5],[1,0.5]];portConstraint=eastwest;whiteSpace=wrap;html=1;" parent="9CV6OLS0KIFlwvHERPuS-21" vertex="1">
          <mxGeometry y="88" width="210" height="92" as="geometry" />
        </mxCell>
        <mxCell id="9CV6OLS0KIFlwvHERPuS-25" value="Difficulty" style="swimlane;fontStyle=1;align=center;verticalAlign=top;childLayout=stackLayout;horizontal=1;startSize=26;horizontalStack=0;resizeParent=1;resizeParentMax=0;resizeLast=0;collapsible=1;marginBottom=0;whiteSpace=wrap;html=1;" parent="1" vertex="1">
          <mxGeometry x="30" y="540" width="210" height="180" as="geometry" />
        </mxCell>
        <mxCell id="9CV6OLS0KIFlwvHERPuS-26" value="&lt;div&gt;width: int&lt;/div&gt;&lt;div&gt;height: int&lt;/div&gt;&lt;div&gt;mineCount: int&lt;/div&gt;" style="text;strokeColor=none;fillColor=none;align=left;verticalAlign=top;spacingLeft=4;spacingRight=4;overflow=hidden;rotatable=0;points=[[0,0.5],[1,0.5]];portConstraint=eastwest;whiteSpace=wrap;html=1;" parent="9CV6OLS0KIFlwvHERPuS-25" vertex="1">
          <mxGeometry y="26" width="210" height="54" as="geometry" />
        </mxCell>
        <mxCell id="9CV6OLS0KIFlwvHERPuS-27" value="" style="line;strokeWidth=1;fillColor=none;align=left;verticalAlign=middle;spacingTop=-1;spacingLeft=3;spacingRight=3;rotatable=0;labelPosition=right;points=[];portConstraint=eastwest;strokeColor=inherit;" parent="9CV6OLS0KIFlwvHERPuS-25" vertex="1">
          <mxGeometry y="80" width="210" height="8" as="geometry" />
        </mxCell>
        <mxCell id="9CV6OLS0KIFlwvHERPuS-28" value="&lt;div&gt;getWidth(): int&lt;/div&gt;&lt;div&gt;getHeight(): int&lt;/div&gt;&lt;div&gt;getMineCount(): int&lt;/div&gt;" style="text;strokeColor=none;fillColor=none;align=left;verticalAlign=top;spacingLeft=4;spacingRight=4;overflow=hidden;rotatable=0;points=[[0,0.5],[1,0.5]];portConstraint=eastwest;whiteSpace=wrap;html=1;" parent="9CV6OLS0KIFlwvHERPuS-25" vertex="1">
          <mxGeometry y="88" width="210" height="92" as="geometry" />
        </mxCell>
        <mxCell id="9CV6OLS0KIFlwvHERPuS-29" value="MineGenerator" style="swimlane;fontStyle=1;align=center;verticalAlign=top;childLayout=stackLayout;horizontal=1;startSize=26;horizontalStack=0;resizeParent=1;resizeParentMax=0;resizeLast=0;collapsible=1;marginBottom=0;whiteSpace=wrap;html=1;" parent="1" vertex="1">
          <mxGeometry x="23.5" y="770" width="210" height="126" as="geometry" />
        </mxCell>
        <mxCell id="9CV6OLS0KIFlwvHERPuS-31" value="" style="line;strokeWidth=1;fillColor=none;align=left;verticalAlign=middle;spacingTop=-1;spacingLeft=3;spacingRight=3;rotatable=0;labelPosition=right;points=[];portConstraint=eastwest;strokeColor=inherit;" parent="9CV6OLS0KIFlwvHERPuS-29" vertex="1">
          <mxGeometry y="26" width="210" height="8" as="geometry" />
        </mxCell>
        <mxCell id="9CV6OLS0KIFlwvHERPuS-32" value="placeMines(Board board, Coordinate firstClick): void" style="text;strokeColor=none;fillColor=none;align=left;verticalAlign=top;spacingLeft=4;spacingRight=4;overflow=hidden;rotatable=0;points=[[0,0.5],[1,0.5]];portConstraint=eastwest;whiteSpace=wrap;html=1;" parent="9CV6OLS0KIFlwvHERPuS-29" vertex="1">
          <mxGeometry y="34" width="210" height="92" as="geometry" />
        </mxCell>
        <mxCell id="9CV6OLS0KIFlwvHERPuS-33" value="ScoreManager" style="swimlane;fontStyle=1;align=center;verticalAlign=top;childLayout=stackLayout;horizontal=1;startSize=26;horizontalStack=0;resizeParent=1;resizeParentMax=0;resizeLast=0;collapsible=1;marginBottom=0;whiteSpace=wrap;html=1;" parent="1" vertex="1">
          <mxGeometry x="48.5" y="920" width="210" height="180" as="geometry" />
        </mxCell>
        <mxCell id="9CV6OLS0KIFlwvHERPuS-34" value="&lt;div&gt;currentScore: int&lt;/div&gt;&lt;div&gt;highScores: Map&amp;lt;Difficulty, Integer&amp;gt;&lt;/div&gt;" style="text;strokeColor=none;fillColor=none;align=left;verticalAlign=top;spacingLeft=4;spacingRight=4;overflow=hidden;rotatable=0;points=[[0,0.5],[1,0.5]];portConstraint=eastwest;whiteSpace=wrap;html=1;" parent="9CV6OLS0KIFlwvHERPuS-33" vertex="1">
          <mxGeometry y="26" width="210" height="54" as="geometry" />
        </mxCell>
        <mxCell id="9CV6OLS0KIFlwvHERPuS-35" value="" style="line;strokeWidth=1;fillColor=none;align=left;verticalAlign=middle;spacingTop=-1;spacingLeft=3;spacingRight=3;rotatable=0;labelPosition=right;points=[];portConstraint=eastwest;strokeColor=inherit;" parent="9CV6OLS0KIFlwvHERPuS-33" vertex="1">
          <mxGeometry y="80" width="210" height="8" as="geometry" />
        </mxCell>
        <mxCell id="9CV6OLS0KIFlwvHERPuS-36" value="&lt;div&gt;calculateScore(long time, Difficulty difficulty): int&lt;/div&gt;&lt;div&gt;updateHighScore(int score, Difficulty difficulty): void&lt;/div&gt;&lt;div&gt;getHighScore(Difficulty difficulty): int&lt;/div&gt;" style="text;strokeColor=none;fillColor=none;align=left;verticalAlign=top;spacingLeft=4;spacingRight=4;overflow=hidden;rotatable=0;points=[[0,0.5],[1,0.5]];portConstraint=eastwest;whiteSpace=wrap;html=1;" parent="9CV6OLS0KIFlwvHERPuS-33" vertex="1">
          <mxGeometry y="88" width="210" height="92" as="geometry" />
        </mxCell>
        <mxCell id="9CV6OLS0KIFlwvHERPuS-37" value="GameRenderer" style="swimlane;fontStyle=1;align=center;verticalAlign=top;childLayout=stackLayout;horizontal=1;startSize=26;horizontalStack=0;resizeParent=1;resizeParentMax=0;resizeLast=0;collapsible=1;marginBottom=0;whiteSpace=wrap;html=1;" parent="1" vertex="1">
          <mxGeometry x="333" y="920" width="210" height="180" as="geometry" />
        </mxCell>
        <mxCell id="9CV6OLS0KIFlwvHERPuS-38" value="game: MinesweeperGame" style="text;strokeColor=none;fillColor=none;align=left;verticalAlign=top;spacingLeft=4;spacingRight=4;overflow=hidden;rotatable=0;points=[[0,0.5],[1,0.5]];portConstraint=eastwest;whiteSpace=wrap;html=1;" parent="9CV6OLS0KIFlwvHERPuS-37" vertex="1">
          <mxGeometry y="26" width="210" height="54" as="geometry" />
        </mxCell>
        <mxCell id="9CV6OLS0KIFlwvHERPuS-39" value="" style="line;strokeWidth=1;fillColor=none;align=left;verticalAlign=middle;spacingTop=-1;spacingLeft=3;spacingRight=3;rotatable=0;labelPosition=right;points=[];portConstraint=eastwest;strokeColor=inherit;" parent="9CV6OLS0KIFlwvHERPuS-37" vertex="1">
          <mxGeometry y="80" width="210" height="8" as="geometry" />
        </mxCell>
        <mxCell id="9CV6OLS0KIFlwvHERPuS-40" value="&lt;div&gt;render(): void&lt;/div&gt;&lt;div&gt;renderBoard(): void&lt;/div&gt;&lt;div&gt;renderUI(): void&lt;/div&gt;" style="text;strokeColor=none;fillColor=none;align=left;verticalAlign=top;spacingLeft=4;spacingRight=4;overflow=hidden;rotatable=0;points=[[0,0.5],[1,0.5]];portConstraint=eastwest;whiteSpace=wrap;html=1;" parent="9CV6OLS0KIFlwvHERPuS-37" vertex="1">
          <mxGeometry y="88" width="210" height="92" as="geometry" />
        </mxCell>
        <mxCell id="9CV6OLS0KIFlwvHERPuS-41" value="InputHandler" style="swimlane;fontStyle=1;align=center;verticalAlign=top;childLayout=stackLayout;horizontal=1;startSize=26;horizontalStack=0;resizeParent=1;resizeParentMax=0;resizeLast=0;collapsible=1;marginBottom=0;whiteSpace=wrap;html=1;" parent="1" vertex="1">
          <mxGeometry x="600" y="920" width="210" height="180" as="geometry" />
        </mxCell>
        <mxCell id="9CV6OLS0KIFlwvHERPuS-42" value="game: MinesweeperGame" style="text;strokeColor=none;fillColor=none;align=left;verticalAlign=top;spacingLeft=4;spacingRight=4;overflow=hidden;rotatable=0;points=[[0,0.5],[1,0.5]];portConstraint=eastwest;whiteSpace=wrap;html=1;" parent="9CV6OLS0KIFlwvHERPuS-41" vertex="1">
          <mxGeometry y="26" width="210" height="54" as="geometry" />
        </mxCell>
        <mxCell id="9CV6OLS0KIFlwvHERPuS-43" value="" style="line;strokeWidth=1;fillColor=none;align=left;verticalAlign=middle;spacingTop=-1;spacingLeft=3;spacingRight=3;rotatable=0;labelPosition=right;points=[];portConstraint=eastwest;strokeColor=inherit;" parent="9CV6OLS0KIFlwvHERPuS-41" vertex="1">
          <mxGeometry y="80" width="210" height="8" as="geometry" />
        </mxCell>
        <mxCell id="9CV6OLS0KIFlwvHERPuS-44" value="&lt;div&gt;handleClick(Coordinate coord, ClickType type): void&lt;/div&gt;&lt;div&gt;handleKeyPress(KeyCode key): void&lt;/div&gt;" style="text;strokeColor=none;fillColor=none;align=left;verticalAlign=top;spacingLeft=4;spacingRight=4;overflow=hidden;rotatable=0;points=[[0,0.5],[1,0.5]];portConstraint=eastwest;whiteSpace=wrap;html=1;" parent="9CV6OLS0KIFlwvHERPuS-41" vertex="1">
          <mxGeometry y="88" width="210" height="92" as="geometry" />
        </mxCell>
        <mxCell id="9CV6OLS0KIFlwvHERPuS-45" value="TImer" style="swimlane;fontStyle=1;align=center;verticalAlign=top;childLayout=stackLayout;horizontal=1;startSize=26;horizontalStack=0;resizeParent=1;resizeParentMax=0;resizeLast=0;collapsible=1;marginBottom=0;whiteSpace=wrap;html=1;" parent="1" vertex="1">
          <mxGeometry x="600" y="510" width="210" height="180" as="geometry" />
        </mxCell>
        <mxCell id="9CV6OLS0KIFlwvHERPuS-46" value="&lt;div&gt;startTime: long&lt;/div&gt;&lt;div&gt;elapsedTime: long&lt;/div&gt;&lt;div&gt;isRunning: boolean&lt;/div&gt;" style="text;strokeColor=none;fillColor=none;align=left;verticalAlign=top;spacingLeft=4;spacingRight=4;overflow=hidden;rotatable=0;points=[[0,0.5],[1,0.5]];portConstraint=eastwest;whiteSpace=wrap;html=1;" parent="9CV6OLS0KIFlwvHERPuS-45" vertex="1">
          <mxGeometry y="26" width="210" height="54" as="geometry" />
        </mxCell>
        <mxCell id="9CV6OLS0KIFlwvHERPuS-47" value="" style="line;strokeWidth=1;fillColor=none;align=left;verticalAlign=middle;spacingTop=-1;spacingLeft=3;spacingRight=3;rotatable=0;labelPosition=right;points=[];portConstraint=eastwest;strokeColor=inherit;" parent="9CV6OLS0KIFlwvHERPuS-45" vertex="1">
          <mxGeometry y="80" width="210" height="8" as="geometry" />
        </mxCell>
        <mxCell id="9CV6OLS0KIFlwvHERPuS-48" value="&lt;div&gt;start(): void&lt;/div&gt;&lt;div&gt;pause(): void&lt;/div&gt;&lt;div&gt;reset(): void&lt;/div&gt;&lt;div&gt;getElapsedTime(): long&lt;/div&gt;" style="text;strokeColor=none;fillColor=none;align=left;verticalAlign=top;spacingLeft=4;spacingRight=4;overflow=hidden;rotatable=0;points=[[0,0.5],[1,0.5]];portConstraint=eastwest;whiteSpace=wrap;html=1;" parent="9CV6OLS0KIFlwvHERPuS-45" vertex="1">
          <mxGeometry y="88" width="210" height="92" as="geometry" />
        </mxCell>
        <mxCell id="9CV6OLS0KIFlwvHERPuS-53" value="GameObject" style="swimlane;fontStyle=1;align=center;verticalAlign=top;childLayout=stackLayout;horizontal=1;startSize=26;horizontalStack=0;resizeParent=1;resizeParentMax=0;resizeLast=0;collapsible=1;marginBottom=0;whiteSpace=wrap;html=1;" parent="1" vertex="1">
          <mxGeometry x="-280" y="377" width="160" height="86" as="geometry" />
        </mxCell>
        <mxCell id="9CV6OLS0KIFlwvHERPuS-54" value="id: string" style="text;strokeColor=none;fillColor=none;align=left;verticalAlign=top;spacingLeft=4;spacingRight=4;overflow=hidden;rotatable=0;points=[[0,0.5],[1,0.5]];portConstraint=eastwest;whiteSpace=wrap;html=1;" parent="9CV6OLS0KIFlwvHERPuS-53" vertex="1">
          <mxGeometry y="26" width="160" height="26" as="geometry" />
        </mxCell>
        <mxCell id="9CV6OLS0KIFlwvHERPuS-55" value="" style="line;strokeWidth=1;fillColor=none;align=left;verticalAlign=middle;spacingTop=-1;spacingLeft=3;spacingRight=3;rotatable=0;labelPosition=right;points=[];portConstraint=eastwest;strokeColor=inherit;" parent="9CV6OLS0KIFlwvHERPuS-53" vertex="1">
          <mxGeometry y="52" width="160" height="8" as="geometry" />
        </mxCell>
        <mxCell id="9CV6OLS0KIFlwvHERPuS-56" value="initialize()" style="text;strokeColor=none;fillColor=none;align=left;verticalAlign=top;spacingLeft=4;spacingRight=4;overflow=hidden;rotatable=0;points=[[0,0.5],[1,0.5]];portConstraint=eastwest;whiteSpace=wrap;html=1;" parent="9CV6OLS0KIFlwvHERPuS-53" vertex="1">
          <mxGeometry y="60" width="160" height="26" as="geometry" />
        </mxCell>
        <mxCell id="9CV6OLS0KIFlwvHERPuS-57" value="Renderable" style="swimlane;fontStyle=1;align=center;verticalAlign=top;childLayout=stackLayout;horizontal=1;startSize=26;horizontalStack=0;resizeParent=1;resizeParentMax=0;resizeLast=0;collapsible=1;marginBottom=0;whiteSpace=wrap;html=1;" parent="1" vertex="1">
          <mxGeometry x="-550" y="320" width="160" height="60" as="geometry" />
        </mxCell>
        <mxCell id="9CV6OLS0KIFlwvHERPuS-59" value="" style="line;strokeWidth=1;fillColor=none;align=left;verticalAlign=middle;spacingTop=-1;spacingLeft=3;spacingRight=3;rotatable=0;labelPosition=right;points=[];portConstraint=eastwest;strokeColor=inherit;" parent="9CV6OLS0KIFlwvHERPuS-57" vertex="1">
          <mxGeometry y="26" width="160" height="8" as="geometry" />
        </mxCell>
        <mxCell id="9CV6OLS0KIFlwvHERPuS-60" value="render()" style="text;strokeColor=none;fillColor=none;align=left;verticalAlign=top;spacingLeft=4;spacingRight=4;overflow=hidden;rotatable=0;points=[[0,0.5],[1,0.5]];portConstraint=eastwest;whiteSpace=wrap;html=1;" parent="9CV6OLS0KIFlwvHERPuS-57" vertex="1">
          <mxGeometry y="34" width="160" height="26" as="geometry" />
        </mxCell>
        <mxCell id="9CV6OLS0KIFlwvHERPuS-61" value="Stateful" style="swimlane;fontStyle=1;align=center;verticalAlign=top;childLayout=stackLayout;horizontal=1;startSize=26;horizontalStack=0;resizeParent=1;resizeParentMax=0;resizeLast=0;collapsible=1;marginBottom=0;whiteSpace=wrap;html=1;" parent="1" vertex="1">
          <mxGeometry x="-740" y="320" width="160" height="60" as="geometry" />
        </mxCell>
        <mxCell id="9CV6OLS0KIFlwvHERPuS-62" value="" style="line;strokeWidth=1;fillColor=none;align=left;verticalAlign=middle;spacingTop=-1;spacingLeft=3;spacingRight=3;rotatable=0;labelPosition=right;points=[];portConstraint=eastwest;strokeColor=inherit;" parent="9CV6OLS0KIFlwvHERPuS-61" vertex="1">
          <mxGeometry y="26" width="160" height="8" as="geometry" />
        </mxCell>
        <mxCell id="9CV6OLS0KIFlwvHERPuS-63" value="updateState()" style="text;strokeColor=none;fillColor=none;align=left;verticalAlign=top;spacingLeft=4;spacingRight=4;overflow=hidden;rotatable=0;points=[[0,0.5],[1,0.5]];portConstraint=eastwest;whiteSpace=wrap;html=1;" parent="9CV6OLS0KIFlwvHERPuS-61" vertex="1">
          <mxGeometry y="34" width="160" height="26" as="geometry" />
        </mxCell>
        <mxCell id="9CV6OLS0KIFlwvHERPuS-65" value="&amp;lt;Enumiration&amp;gt;&lt;div&gt;GameState&lt;/div&gt;" style="swimlane;fontStyle=1;align=center;verticalAlign=top;childLayout=stackLayout;horizontal=1;startSize=40;horizontalStack=0;resizeParent=1;resizeParentMax=0;resizeLast=0;collapsible=1;marginBottom=0;whiteSpace=wrap;html=1;" parent="1" vertex="1">
          <mxGeometry x="73.5" y="150" width="160" height="130" as="geometry" />
        </mxCell>
        <mxCell id="9CV6OLS0KIFlwvHERPuS-66" value="" style="line;strokeWidth=1;fillColor=none;align=left;verticalAlign=middle;spacingTop=-1;spacingLeft=3;spacingRight=3;rotatable=0;labelPosition=right;points=[];portConstraint=eastwest;strokeColor=inherit;" parent="9CV6OLS0KIFlwvHERPuS-65" vertex="1">
          <mxGeometry y="40" width="160" height="10" as="geometry" />
        </mxCell>
        <mxCell id="9CV6OLS0KIFlwvHERPuS-67" value="NOT_STARTED&lt;div&gt;IN_PROGRESS&lt;/div&gt;&lt;div&gt;PAUSED&lt;/div&gt;&lt;div&gt;WON&lt;/div&gt;&lt;div&gt;LOST&lt;/div&gt;" style="text;strokeColor=none;fillColor=none;align=left;verticalAlign=top;spacingLeft=4;spacingRight=4;overflow=hidden;rotatable=0;points=[[0,0.5],[1,0.5]];portConstraint=eastwest;whiteSpace=wrap;html=1;" parent="9CV6OLS0KIFlwvHERPuS-65" vertex="1">
          <mxGeometry y="50" width="160" height="80" as="geometry" />
        </mxCell>
        <mxCell id="9CV6OLS0KIFlwvHERPuS-72" value="&amp;lt;Enumiration&amp;gt;&lt;div&gt;ClickType&lt;/div&gt;" style="swimlane;fontStyle=1;align=center;verticalAlign=top;childLayout=stackLayout;horizontal=1;startSize=40;horizontalStack=0;resizeParent=1;resizeParentMax=0;resizeLast=0;collapsible=1;marginBottom=0;whiteSpace=wrap;html=1;" parent="1" vertex="1">
          <mxGeometry x="650" y="710" width="160" height="100" as="geometry" />
        </mxCell>
        <mxCell id="9CV6OLS0KIFlwvHERPuS-73" value="" style="line;strokeWidth=1;fillColor=none;align=left;verticalAlign=middle;spacingTop=-1;spacingLeft=3;spacingRight=3;rotatable=0;labelPosition=right;points=[];portConstraint=eastwest;strokeColor=inherit;" parent="9CV6OLS0KIFlwvHERPuS-72" vertex="1">
          <mxGeometry y="40" width="160" height="10" as="geometry" />
        </mxCell>
        <mxCell id="9CV6OLS0KIFlwvHERPuS-74" value="LEFT_CLICK&lt;div&gt;RIGHT_CLICK&lt;/div&gt;" style="text;strokeColor=none;fillColor=none;align=left;verticalAlign=top;spacingLeft=4;spacingRight=4;overflow=hidden;rotatable=0;points=[[0,0.5],[1,0.5]];portConstraint=eastwest;whiteSpace=wrap;html=1;" parent="9CV6OLS0KIFlwvHERPuS-72" vertex="1">
          <mxGeometry y="50" width="160" height="50" as="geometry" />
        </mxCell>
        <mxCell id="GqcTUa_5dcUlX0jAunxQ-1" value="" style="endArrow=diamondThin;endFill=1;endSize=24;html=1;rounded=0;entryX=0.509;entryY=1.019;entryDx=0;entryDy=0;entryPerimeter=0;exitX=0.543;exitY=-0.001;exitDx=0;exitDy=0;exitPerimeter=0;" edge="1" parent="1" source="9CV6OLS0KIFlwvHERPuS-5" target="9CV6OLS0KIFlwvHERPuS-16">
          <mxGeometry width="160" relative="1" as="geometry">
            <mxPoint x="383" y="378" as="sourcePoint" />
            <mxPoint x="543" y="378" as="targetPoint" />
          </mxGeometry>
        </mxCell>
        <mxCell id="GqcTUa_5dcUlX0jAunxQ-2" value="" style="endArrow=diamondThin;endFill=1;endSize=24;html=1;rounded=0;exitX=-0.011;exitY=0.136;exitDx=0;exitDy=0;exitPerimeter=0;entryX=1.004;entryY=0.04;entryDx=0;entryDy=0;entryPerimeter=0;" edge="1" parent="1" source="9CV6OLS0KIFlwvHERPuS-14" target="9CV6OLS0KIFlwvHERPuS-18">
          <mxGeometry width="160" relative="1" as="geometry">
            <mxPoint x="60" y="50" as="sourcePoint" />
            <mxPoint x="220" y="50" as="targetPoint" />
          </mxGeometry>
        </mxCell>
        <mxCell id="GqcTUa_5dcUlX0jAunxQ-3" value="" style="endArrow=diamondThin;endFill=1;endSize=24;html=1;rounded=0;entryX=0.001;entryY=0.238;entryDx=0;entryDy=0;entryPerimeter=0;" edge="1" parent="1" target="9CV6OLS0KIFlwvHERPuS-24">
          <mxGeometry width="160" relative="1" as="geometry">
            <mxPoint x="-50" y="240" as="sourcePoint" />
            <mxPoint x="110" y="240" as="targetPoint" />
            <Array as="points">
              <mxPoint y="240" />
              <mxPoint y="440" />
            </Array>
          </mxGeometry>
        </mxCell>
        <mxCell id="GqcTUa_5dcUlX0jAunxQ-4" value="" style="endArrow=diamondThin;endFill=0;endSize=24;html=1;rounded=0;exitX=0.002;exitY=0.06;exitDx=0;exitDy=0;exitPerimeter=0;entryX=1;entryY=0.25;entryDx=0;entryDy=0;" edge="1" parent="1" source="9CV6OLS0KIFlwvHERPuS-5" target="9CV6OLS0KIFlwvHERPuS-65">
          <mxGeometry width="160" relative="1" as="geometry">
            <mxPoint x="290" y="380" as="sourcePoint" />
            <mxPoint x="261.64999999999986" y="190.76" as="targetPoint" />
            <Array as="points">
              <mxPoint x="280" y="466" />
              <mxPoint x="280" y="190" />
            </Array>
          </mxGeometry>
        </mxCell>
        <mxCell id="GqcTUa_5dcUlX0jAunxQ-5" value="" style="endArrow=diamondThin;endFill=0;endSize=24;html=1;rounded=0;entryX=1;entryY=0.5;entryDx=0;entryDy=0;exitX=-0.002;exitY=0.254;exitDx=0;exitDy=0;exitPerimeter=0;" edge="1" parent="1" source="9CV6OLS0KIFlwvHERPuS-8" target="9CV6OLS0KIFlwvHERPuS-28">
          <mxGeometry width="160" relative="1" as="geometry">
            <mxPoint x="300" y="700" as="sourcePoint" />
            <mxPoint x="460" y="700" as="targetPoint" />
          </mxGeometry>
        </mxCell>
        <mxCell id="GqcTUa_5dcUlX0jAunxQ-6" value="" style="endArrow=diamondThin;endFill=0;endSize=24;html=1;rounded=0;" edge="1" parent="1" source="9CV6OLS0KIFlwvHERPuS-8" target="9CV6OLS0KIFlwvHERPuS-32">
          <mxGeometry width="160" relative="1" as="geometry">
            <mxPoint x="320" y="880" as="sourcePoint" />
            <mxPoint x="480" y="880" as="targetPoint" />
          </mxGeometry>
        </mxCell>
        <mxCell id="GqcTUa_5dcUlX0jAunxQ-7" value="" style="endArrow=diamondThin;endFill=0;endSize=24;html=1;rounded=0;exitX=0.132;exitY=0.978;exitDx=0;exitDy=0;exitPerimeter=0;entryX=0.993;entryY=0.075;entryDx=0;entryDy=0;entryPerimeter=0;" edge="1" parent="1" source="9CV6OLS0KIFlwvHERPuS-8" target="9CV6OLS0KIFlwvHERPuS-33">
          <mxGeometry width="160" relative="1" as="geometry">
            <mxPoint x="220" y="830" as="sourcePoint" />
            <mxPoint x="380" y="830" as="targetPoint" />
          </mxGeometry>
        </mxCell>
        <mxCell id="GqcTUa_5dcUlX0jAunxQ-8" value="" style="endArrow=diamondThin;endFill=0;endSize=24;html=1;rounded=0;entryX=0.5;entryY=0;entryDx=0;entryDy=0;" edge="1" parent="1" source="9CV6OLS0KIFlwvHERPuS-8" target="9CV6OLS0KIFlwvHERPuS-37">
          <mxGeometry width="160" relative="1" as="geometry">
            <mxPoint x="420" y="830" as="sourcePoint" />
            <mxPoint x="580" y="830" as="targetPoint" />
          </mxGeometry>
        </mxCell>
        <mxCell id="GqcTUa_5dcUlX0jAunxQ-9" value="" style="endArrow=diamondThin;endFill=0;endSize=24;html=1;rounded=0;entryX=0.005;entryY=0.075;entryDx=0;entryDy=0;entryPerimeter=0;" edge="1" parent="1" source="9CV6OLS0KIFlwvHERPuS-8" target="9CV6OLS0KIFlwvHERPuS-41">
          <mxGeometry width="160" relative="1" as="geometry">
            <mxPoint x="420" y="830" as="sourcePoint" />
            <mxPoint x="580" y="830" as="targetPoint" />
          </mxGeometry>
        </mxCell>
        <mxCell id="GqcTUa_5dcUlX0jAunxQ-10" value="" style="endArrow=diamondThin;endFill=0;endSize=24;html=1;rounded=0;exitX=0.981;exitY=0.889;exitDx=0;exitDy=0;exitPerimeter=0;entryX=0;entryY=0.5;entryDx=0;entryDy=0;" edge="1" parent="1" source="9CV6OLS0KIFlwvHERPuS-8" target="9CV6OLS0KIFlwvHERPuS-48">
          <mxGeometry width="160" relative="1" as="geometry">
            <mxPoint x="510" y="750" as="sourcePoint" />
            <mxPoint x="670" y="750" as="targetPoint" />
          </mxGeometry>
        </mxCell>
        <mxCell id="GqcTUa_5dcUlX0jAunxQ-11" value="" style="endArrow=open;endFill=1;endSize=12;html=1;rounded=0;exitX=0.008;exitY=0.088;exitDx=0;exitDy=0;exitPerimeter=0;entryX=0;entryY=0.5;entryDx=0;entryDy=0;" edge="1" parent="1" source="9CV6OLS0KIFlwvHERPuS-33" target="9CV6OLS0KIFlwvHERPuS-28">
          <mxGeometry width="160" relative="1" as="geometry">
            <mxPoint x="90" y="790" as="sourcePoint" />
            <mxPoint x="20" y="600" as="targetPoint" />
            <Array as="points">
              <mxPoint x="10" y="936" />
              <mxPoint x="10" y="680" />
            </Array>
          </mxGeometry>
        </mxCell>
        <mxCell id="GqcTUa_5dcUlX0jAunxQ-12" value="" style="endArrow=open;endFill=1;endSize=12;html=1;rounded=0;exitX=0.424;exitY=-0.013;exitDx=0;exitDy=0;exitPerimeter=0;entryX=0.971;entryY=1.018;entryDx=0;entryDy=0;entryPerimeter=0;" edge="1" parent="1" source="9CV6OLS0KIFlwvHERPuS-41" target="9CV6OLS0KIFlwvHERPuS-8">
          <mxGeometry width="160" relative="1" as="geometry">
            <mxPoint x="490" y="790" as="sourcePoint" />
            <mxPoint x="650" y="790" as="targetPoint" />
          </mxGeometry>
        </mxCell>
        <mxCell id="GqcTUa_5dcUlX0jAunxQ-13" value="" style="endArrow=open;endFill=1;endSize=12;html=1;rounded=0;exitX=0.188;exitY=-0.001;exitDx=0;exitDy=0;exitPerimeter=0;entryX=0.325;entryY=1.034;entryDx=0;entryDy=0;entryPerimeter=0;" edge="1" parent="1" source="9CV6OLS0KIFlwvHERPuS-37" target="9CV6OLS0KIFlwvHERPuS-8">
          <mxGeometry width="160" relative="1" as="geometry">
            <mxPoint x="360" y="790" as="sourcePoint" />
            <mxPoint x="520" y="790" as="targetPoint" />
          </mxGeometry>
        </mxCell>
        <mxCell id="GqcTUa_5dcUlX0jAunxQ-14" value="" style="endArrow=open;endFill=1;endSize=12;html=1;rounded=0;exitX=1;exitY=0;exitDx=0;exitDy=0;entryX=-0.001;entryY=0.76;entryDx=0;entryDy=0;entryPerimeter=0;" edge="1" parent="1" source="9CV6OLS0KIFlwvHERPuS-29" target="9CV6OLS0KIFlwvHERPuS-16">
          <mxGeometry width="160" relative="1" as="geometry">
            <mxPoint x="150" y="590" as="sourcePoint" />
            <mxPoint x="310" y="590" as="targetPoint" />
            <Array as="points">
              <mxPoint x="300" y="770" />
              <mxPoint x="300" y="260" />
            </Array>
          </mxGeometry>
        </mxCell>
        <mxCell id="GqcTUa_5dcUlX0jAunxQ-16" style="edgeStyle=orthogonalEdgeStyle;rounded=0;orthogonalLoop=1;jettySize=auto;html=1;entryX=0.5;entryY=0;entryDx=0;entryDy=0;" edge="1" parent="1" source="9CV6OLS0KIFlwvHERPuS-20" target="9CV6OLS0KIFlwvHERPuS-57">
          <mxGeometry relative="1" as="geometry" />
        </mxCell>
        <mxCell id="GqcTUa_5dcUlX0jAunxQ-17" style="edgeStyle=orthogonalEdgeStyle;rounded=0;orthogonalLoop=1;jettySize=auto;html=1;" edge="1" parent="1" source="9CV6OLS0KIFlwvHERPuS-20" target="9CV6OLS0KIFlwvHERPuS-61">
          <mxGeometry relative="1" as="geometry" />
        </mxCell>
        <mxCell id="GqcTUa_5dcUlX0jAunxQ-18" value="1..1" style="text;html=1;whiteSpace=wrap;strokeColor=none;fillColor=none;align=center;verticalAlign=middle;rounded=0;" vertex="1" parent="1">
          <mxGeometry x="450" y="410" width="60" height="30" as="geometry" />
        </mxCell>
        <mxCell id="GqcTUa_5dcUlX0jAunxQ-19" value="1..1" style="text;html=1;whiteSpace=wrap;strokeColor=none;fillColor=none;align=center;verticalAlign=middle;rounded=0;" vertex="1" parent="1">
          <mxGeometry x="460" y="250" width="60" height="30" as="geometry" />
        </mxCell>
        <mxCell id="GqcTUa_5dcUlX0jAunxQ-20" value="1..1" style="text;html=1;whiteSpace=wrap;strokeColor=none;fillColor=none;align=center;verticalAlign=middle;rounded=0;" vertex="1" parent="1">
          <mxGeometry x="258.5" y="20" width="60" height="30" as="geometry" />
        </mxCell>
        <mxCell id="GqcTUa_5dcUlX0jAunxQ-21" value="1..*" style="text;html=1;whiteSpace=wrap;strokeColor=none;fillColor=none;align=center;verticalAlign=middle;rounded=0;" vertex="1" parent="1">
          <mxGeometry x="-40" y="20" width="60" height="30" as="geometry" />
        </mxCell>
        <mxCell id="GqcTUa_5dcUlX0jAunxQ-22" value="1..1" style="text;html=1;whiteSpace=wrap;strokeColor=none;fillColor=none;align=center;verticalAlign=middle;rounded=0;" vertex="1" parent="1">
          <mxGeometry y="390" width="60" height="30" as="geometry" />
        </mxCell>
        <mxCell id="GqcTUa_5dcUlX0jAunxQ-23" value="1..1" style="text;html=1;whiteSpace=wrap;strokeColor=none;fillColor=none;align=center;verticalAlign=middle;rounded=0;" vertex="1" parent="1">
          <mxGeometry x="-53" y="210" width="60" height="30" as="geometry" />
        </mxCell>
        <mxCell id="GqcTUa_5dcUlX0jAunxQ-24" value="1..1" style="text;html=1;whiteSpace=wrap;strokeColor=none;fillColor=none;align=center;verticalAlign=middle;rounded=0;" vertex="1" parent="1">
          <mxGeometry x="290" y="433" width="60" height="30" as="geometry" />
        </mxCell>
        <mxCell id="GqcTUa_5dcUlX0jAunxQ-25" value="1..1" style="text;html=1;whiteSpace=wrap;strokeColor=none;fillColor=none;align=center;verticalAlign=middle;rounded=0;" vertex="1" parent="1">
          <mxGeometry x="230" y="150" width="60" height="30" as="geometry" />
        </mxCell>
        <mxCell id="GqcTUa_5dcUlX0jAunxQ-26" value="1..1" style="text;html=1;whiteSpace=wrap;strokeColor=none;fillColor=none;align=center;verticalAlign=middle;rounded=0;" vertex="1" parent="1">
          <mxGeometry x="290" y="655" width="60" height="30" as="geometry" />
        </mxCell>
        <mxCell id="GqcTUa_5dcUlX0jAunxQ-27" value="1..1" style="text;html=1;whiteSpace=wrap;strokeColor=none;fillColor=none;align=center;verticalAlign=middle;rounded=0;" vertex="1" parent="1">
          <mxGeometry x="250" y="655" width="60" height="30" as="geometry" />
        </mxCell>
        <mxCell id="GqcTUa_5dcUlX0jAunxQ-28" value="1..1" style="text;html=1;whiteSpace=wrap;strokeColor=none;fillColor=none;align=center;verticalAlign=middle;rounded=0;" vertex="1" parent="1">
          <mxGeometry x="290" y="745" width="60" height="30" as="geometry" />
        </mxCell>
        <mxCell id="GqcTUa_5dcUlX0jAunxQ-29" value="1..1" style="text;html=1;whiteSpace=wrap;strokeColor=none;fillColor=none;align=center;verticalAlign=middle;rounded=0;" vertex="1" parent="1">
          <mxGeometry x="220" y="805" width="60" height="30" as="geometry" />
        </mxCell>
        <mxCell id="GqcTUa_5dcUlX0jAunxQ-30" value="1..1" style="text;html=1;whiteSpace=wrap;strokeColor=none;fillColor=none;align=center;verticalAlign=middle;rounded=0;" vertex="1" parent="1">
          <mxGeometry x="340" y="780" width="60" height="30" as="geometry" />
        </mxCell>
        <mxCell id="GqcTUa_5dcUlX0jAunxQ-31" value="1..1" style="text;html=1;whiteSpace=wrap;strokeColor=none;fillColor=none;align=center;verticalAlign=middle;rounded=0;" vertex="1" parent="1">
          <mxGeometry x="250" y="930" width="60" height="30" as="geometry" />
        </mxCell>
        <mxCell id="GqcTUa_5dcUlX0jAunxQ-32" value="1..1" style="text;html=1;whiteSpace=wrap;strokeColor=none;fillColor=none;align=center;verticalAlign=middle;rounded=0;" vertex="1" parent="1">
          <mxGeometry x="430" y="775" width="60" height="30" as="geometry" />
        </mxCell>
        <mxCell id="GqcTUa_5dcUlX0jAunxQ-33" value="1..1" style="text;html=1;whiteSpace=wrap;strokeColor=none;fillColor=none;align=center;verticalAlign=middle;rounded=0;" vertex="1" parent="1">
          <mxGeometry x="440" y="890" width="60" height="30" as="geometry" />
        </mxCell>
        <mxCell id="GqcTUa_5dcUlX0jAunxQ-34" value="1..1" style="text;html=1;whiteSpace=wrap;strokeColor=none;fillColor=none;align=center;verticalAlign=middle;rounded=0;" vertex="1" parent="1">
          <mxGeometry x="490" y="775" width="60" height="30" as="geometry" />
        </mxCell>
        <mxCell id="GqcTUa_5dcUlX0jAunxQ-35" value="1..1" style="text;html=1;whiteSpace=wrap;strokeColor=none;fillColor=none;align=center;verticalAlign=middle;rounded=0;" vertex="1" parent="1">
          <mxGeometry x="550" y="930" width="60" height="30" as="geometry" />
        </mxCell>
        <mxCell id="GqcTUa_5dcUlX0jAunxQ-36" value="1..1" style="text;html=1;whiteSpace=wrap;strokeColor=none;fillColor=none;align=center;verticalAlign=middle;rounded=0;" vertex="1" parent="1">
          <mxGeometry x="550" y="750" width="60" height="30" as="geometry" />
        </mxCell>
        <mxCell id="GqcTUa_5dcUlX0jAunxQ-37" value="1..1" style="text;html=1;whiteSpace=wrap;strokeColor=none;fillColor=none;align=center;verticalAlign=middle;rounded=0;" vertex="1" parent="1">
          <mxGeometry x="550" y="625" width="60" height="30" as="geometry" />
        </mxCell>
        <mxCell id="GqcTUa_5dcUlX0jAunxQ-38" value="1..1" style="text;html=1;whiteSpace=wrap;strokeColor=none;fillColor=none;align=center;verticalAlign=middle;rounded=0;" vertex="1" parent="1">
          <mxGeometry y="930" width="60" height="30" as="geometry" />
        </mxCell>
        <mxCell id="GqcTUa_5dcUlX0jAunxQ-39" value="1..*" style="text;html=1;whiteSpace=wrap;strokeColor=none;fillColor=none;align=center;verticalAlign=middle;rounded=0;" vertex="1" parent="1">
          <mxGeometry x="-11.5" y="640" width="60" height="30" as="geometry" />
        </mxCell>
        <mxCell id="GqcTUa_5dcUlX0jAunxQ-40" value="1..1" style="text;html=1;whiteSpace=wrap;strokeColor=none;fillColor=none;align=center;verticalAlign=middle;rounded=0;" vertex="1" parent="1">
          <mxGeometry x="670" y="890" width="60" height="30" as="geometry" />
        </mxCell>
        <mxCell id="GqcTUa_5dcUlX0jAunxQ-41" value="1..1" style="text;html=1;whiteSpace=wrap;strokeColor=none;fillColor=none;align=center;verticalAlign=middle;rounded=0;" vertex="1" parent="1">
          <mxGeometry x="527" y="780" width="60" height="30" as="geometry" />
        </mxCell>
        <mxCell id="GqcTUa_5dcUlX0jAunxQ-42" value="1..1" style="text;html=1;whiteSpace=wrap;strokeColor=none;fillColor=none;align=center;verticalAlign=middle;rounded=0;" vertex="1" parent="1">
          <mxGeometry x="360" y="890" width="60" height="30" as="geometry" />
        </mxCell>
        <mxCell id="GqcTUa_5dcUlX0jAunxQ-43" value="1..1" style="text;html=1;whiteSpace=wrap;strokeColor=none;fillColor=none;align=center;verticalAlign=middle;rounded=0;" vertex="1" parent="1">
          <mxGeometry x="384" y="790" width="60" height="30" as="geometry" />
        </mxCell>
        <mxCell id="GqcTUa_5dcUlX0jAunxQ-44" value="1..1" style="text;html=1;whiteSpace=wrap;strokeColor=none;fillColor=none;align=center;verticalAlign=middle;rounded=0;" vertex="1" parent="1">
          <mxGeometry x="230" y="740" width="60" height="30" as="geometry" />
        </mxCell>
        <mxCell id="GqcTUa_5dcUlX0jAunxQ-45" value="1..1" style="text;html=1;whiteSpace=wrap;strokeColor=none;fillColor=none;align=center;verticalAlign=middle;rounded=0;" vertex="1" parent="1">
          <mxGeometry x="290" y="250" width="60" height="30" as="geometry" />
        </mxCell>
        <mxCell id="GqcTUa_5dcUlX0jAunxQ-46" value="содержит" style="text;html=1;whiteSpace=wrap;strokeColor=none;fillColor=none;align=center;verticalAlign=middle;rounded=0;" vertex="1" parent="1">
          <mxGeometry x="467" y="330" width="60" height="30" as="geometry" />
        </mxCell>
        <mxCell id="GqcTUa_5dcUlX0jAunxQ-47" value="состоит из" style="text;html=1;whiteSpace=wrap;strokeColor=none;fillColor=none;align=center;verticalAlign=middle;rounded=0;" vertex="1" parent="1">
          <mxGeometry x="100" y="20" width="90" height="30" as="geometry" />
        </mxCell>
        <mxCell id="GqcTUa_5dcUlX0jAunxQ-48" value="состоит из" style="text;html=1;whiteSpace=wrap;strokeColor=none;fillColor=none;align=center;verticalAlign=middle;rounded=0;" vertex="1" parent="1">
          <mxGeometry y="300" width="60" height="30" as="geometry" />
        </mxCell>
        <mxCell id="GqcTUa_5dcUlX0jAunxQ-49" value="имеет состояние" style="text;html=1;whiteSpace=wrap;strokeColor=none;fillColor=none;align=center;verticalAlign=middle;rounded=0;" vertex="1" parent="1">
          <mxGeometry x="220" y="290" width="60" height="30" as="geometry" />
        </mxCell>
        <mxCell id="GqcTUa_5dcUlX0jAunxQ-50" value="использует уровень" style="text;html=1;whiteSpace=wrap;strokeColor=none;fillColor=none;align=center;verticalAlign=middle;rounded=0;" vertex="1" parent="1">
          <mxGeometry x="250" y="630" width="40" height="30" as="geometry" />
        </mxCell>
        <mxCell id="GqcTUa_5dcUlX0jAunxQ-51" value="управляет" style="text;html=1;whiteSpace=wrap;strokeColor=none;fillColor=none;align=center;verticalAlign=middle;rounded=0;" vertex="1" parent="1">
          <mxGeometry x="580" y="710" width="60" height="30" as="geometry" />
        </mxCell>
        <mxCell id="GqcTUa_5dcUlX0jAunxQ-52" value="ведёт учёт через" style="text;html=1;whiteSpace=wrap;strokeColor=none;fillColor=none;align=center;verticalAlign=middle;rounded=0;" vertex="1" parent="1">
          <mxGeometry x="290" y="866" width="60" height="30" as="geometry" />
        </mxCell>
        <mxCell id="GqcTUa_5dcUlX0jAunxQ-53" value="отображает через" style="text;html=1;whiteSpace=wrap;strokeColor=none;fillColor=none;align=center;verticalAlign=middle;rounded=0;" vertex="1" parent="1">
          <mxGeometry x="444" y="836" width="60" height="30" as="geometry" />
        </mxCell>
        <mxCell id="GqcTUa_5dcUlX0jAunxQ-54" value="обрабатывает ввод через" style="text;html=1;whiteSpace=wrap;strokeColor=none;fillColor=none;align=center;verticalAlign=middle;rounded=0;" vertex="1" parent="1">
          <mxGeometry x="530" y="830" width="60" height="30" as="geometry" />
        </mxCell>
        <mxCell id="GqcTUa_5dcUlX0jAunxQ-56" value="генерирует мины через" style="text;html=1;whiteSpace=wrap;strokeColor=none;fillColor=none;align=center;verticalAlign=middle;rounded=0;" vertex="1" parent="1">
          <mxGeometry x="273" y="790" width="60" height="30" as="geometry" />
        </mxCell>
        <mxCell id="GqcTUa_5dcUlX0jAunxQ-57" value="хранит рекорды для" style="text;html=1;whiteSpace=wrap;strokeColor=none;fillColor=none;align=center;verticalAlign=middle;rounded=0;" vertex="1" parent="1">
          <mxGeometry x="-50" y="780" width="60" height="30" as="geometry" />
        </mxCell>
        <mxCell id="GqcTUa_5dcUlX0jAunxQ-58" value="управляет" style="text;html=1;whiteSpace=wrap;strokeColor=none;fillColor=none;align=center;verticalAlign=middle;rounded=0;" vertex="1" parent="1">
          <mxGeometry x="620" y="820" width="60" height="30" as="geometry" />
        </mxCell>
        <mxCell id="GqcTUa_5dcUlX0jAunxQ-59" value="отображает" style="text;html=1;whiteSpace=wrap;strokeColor=none;fillColor=none;align=center;verticalAlign=middle;rounded=0;" vertex="1" parent="1">
          <mxGeometry x="360" y="830" width="60" height="30" as="geometry" />
        </mxCell>
        <mxCell id="GqcTUa_5dcUlX0jAunxQ-60" value="размещает мины на" style="text;html=1;whiteSpace=wrap;strokeColor=none;fillColor=none;align=center;verticalAlign=middle;rounded=0;" vertex="1" parent="1">
          <mxGeometry x="310" y="347" width="40" height="30" as="geometry" />
        </mxCell>
        <mxCell id="GqcTUa_5dcUlX0jAunxQ-62" value="наследует" style="text;html=1;whiteSpace=wrap;strokeColor=none;fillColor=none;align=center;verticalAlign=middle;rounded=0;" vertex="1" parent="1">
          <mxGeometry x="-270" y="310" width="60" height="30" as="geometry" />
        </mxCell>
        <mxCell id="GqcTUa_5dcUlX0jAunxQ-63" value="реализует" style="text;html=1;whiteSpace=wrap;strokeColor=none;fillColor=none;align=center;verticalAlign=middle;rounded=0;" vertex="1" parent="1">
          <mxGeometry x="-540" y="250" width="60" height="30" as="geometry" />
        </mxCell>
        <mxCell id="GqcTUa_5dcUlX0jAunxQ-64" value="реализует" style="text;html=1;whiteSpace=wrap;strokeColor=none;fillColor=none;align=center;verticalAlign=middle;rounded=0;" vertex="1" parent="1">
          <mxGeometry x="-720" y="250" width="60" height="30" as="geometry" />
        </mxCell>
        <mxCell id="GqcTUa_5dcUlX0jAunxQ-65" value="" style="endArrow=open;endFill=1;endSize=12;html=1;rounded=0;exitX=0.857;exitY=0.005;exitDx=0;exitDy=0;exitPerimeter=0;entryX=0.801;entryY=0.924;entryDx=0;entryDy=0;entryPerimeter=0;" edge="1" parent="1" source="9CV6OLS0KIFlwvHERPuS-41" target="9CV6OLS0KIFlwvHERPuS-74">
          <mxGeometry width="160" relative="1" as="geometry">
            <mxPoint x="620" y="770" as="sourcePoint" />
            <mxPoint x="780" y="770" as="targetPoint" />
          </mxGeometry>
        </mxCell>
        <mxCell id="GqcTUa_5dcUlX0jAunxQ-66" value="использует" style="text;html=1;whiteSpace=wrap;strokeColor=none;fillColor=none;align=center;verticalAlign=middle;rounded=0;" vertex="1" parent="1">
          <mxGeometry x="710" y="850" width="60" height="30" as="geometry" />
        </mxCell>
        <mxCell id="GqcTUa_5dcUlX0jAunxQ-67" value="1..1" style="text;html=1;whiteSpace=wrap;strokeColor=none;fillColor=none;align=center;verticalAlign=middle;rounded=0;" vertex="1" parent="1">
          <mxGeometry x="750" y="890" width="40" height="30" as="geometry" />
        </mxCell>
        <mxCell id="GqcTUa_5dcUlX0jAunxQ-68" value="1..1" style="text;html=1;whiteSpace=wrap;strokeColor=none;fillColor=none;align=center;verticalAlign=middle;rounded=0;" vertex="1" parent="1">
          <mxGeometry x="740" y="818" width="40" height="30" as="geometry" />
        </mxCell>
      </root>
    </mxGraphModel>
  </diagram>
</mxfile>
